<svg id="Слой_1" data-name="Слой 1" xmlns="http://www.w3.org/2000/svg" viewBox="0 0 91.62 35.78"><defs><style>.cls-1{font-size:32px;fill:#0038ea;stroke:#001fff;font-family:MyriadPro-Regular, Myriad Pro;}.cls-1,.cls-2,.cls-3,.cls-4,.cls-5{stroke-miterlimit:10;}.cls-2,.cls-4,.cls-5{fill:none;}.cls-2,.cls-3,.cls-4{stroke:#000;}.cls-2,.cls-3,.cls-4,.cls-5{stroke-width:0.25px;}.cls-3{fill:#fff;}.cls-3,.cls-4,.cls-5{stroke-linecap:round;}.cls-5{stroke:#020202;}</style></defs><title>ngc</title><text class="cls-1" transform="translate(30.83 27.28)">NGC</text><line class="cls-2" x1="6.13" y1="27.07" x2="24.13" y2="27.07"/><path class="cls-2" d="M17,25c0,1.11-3.58,2-8,2" transform="translate(-2.88 0.07)"/><path class="cls-2" d="M19,25c0,1.11,3.58,2,8,2" transform="translate(-2.88 0.07)"/><line class="cls-2" x1="14.13" y1="25.07" x2="15.13" y2="9.07"/><line class="cls-2" x1="16.13" y1="25.07" x2="15.13" y2="9.07"/><circle class="cls-3" cx="15.25" cy="5.44" r="0.92"/><path class="cls-4" d="M18,9c0-1.66,4.92-3,11-3" transform="translate(-2.88 0.07)"/><path class="cls-4" d="M18,9c0-1.66-4.92-3-11-3" transform="translate(-2.88 0.07)"/><line class="cls-4" x1="4.13" y1="6.07" x2="13.13" y2="5.07"/><line class="cls-4" x1="26.13" y1="6.07" x2="17.13" y2="5.07"/><path class="cls-4" d="M16,5a2,2,0,0,1,2-2" transform="translate(-2.88 0.07)"/><path class="cls-4" d="M20,5a2,2,0,0,0-2-2" transform="translate(-2.88 0.07)"/><line class="cls-4" x1="4.13" y1="6.07" x2="0.13" y2="18.07"/><line class="cls-4" x1="4.13" y1="6.07" x2="8.13" y2="18.07"/><line class="cls-5" x1="26.13" y1="6.07" x2="30.13" y2="18.07"/><line class="cls-4" x1="26.13" y1="6.07" x2="22.13" y2="18.07"/><line class="cls-4" x1="0.13" y1="18.07" x2="8.13" y2="18.07"/><line class="cls-4" x1="22.13" y1="18.07" x2="30.13" y2="18.07"/><path class="cls-4" d="M3,18c0,1.66,1.79,3,4,3" transform="translate(-2.88 0.07)"/><path class="cls-5" d="M11,18c0,1.66-1.79,3-4,3" transform="translate(-2.88 0.07)"/><path class="cls-4" d="M25,18c0,1.66,1.79,3,4,3" transform="translate(-2.88 0.07)"/><path class="cls-4" d="M33,18c0,1.66-1.79,3-4,3" transform="translate(-2.88 0.07)"/></svg>