<svg id="Слой_2" data-name="Слой 2" xmlns="http://www.w3.org/2000/svg" viewBox="0 0 70.76 28.99"><defs><style>.cls-1,.cls-2{fill:#b09225;}.cls-1,.cls-2,.cls-3{stroke:#b09225;stroke-miterlimit:2.61;}.cls-1{stroke-width:0.22px;}.cls-2{stroke-width:0.55px;}.cls-3{stroke-width:1.28px;}</style></defs><title>pcgs</title><path class="cls-1" d="M39.79,25.29l.2.27-.67-.81h5.33l-.1-.33H39.2l-.6-.83h5.81l-.07-.38h-5.9l-.55-.83h6.36v-.31H37.85l-.45-.85H44l-1.1-.32H37.23L37,20.06s4.84,0,4.5,0a.73.73,0,0,1-.6-.51h-4l0-.83h3.92c0-.4.21-.51.21-.51H35.57C37.3,29.46,48.1,30.35,48.1,30.35h7.18v-.25H47.62l-1.86-.7h9.52v-.26H45.1l-.8-.43-.79-.4H55.28v-.46H46.2c-2.17.69-2.34,0-2.34,0H42.58l-.92-.81H44l.33-.29H41.16L40.4,26h4.5l0-.37H40l-.2-.3Z" transform="translate(-6.62 -1.5)"/><path class="cls-1" d="M48.27,26.77l-.56.32h7.57v-.32Zm2.15-1.18-.64.37h5.51v-.37Zm2.22-2.35.08.11.09.24h2.47v-.35Zm-.19-1.17h2.84v.33H52.54l-.07-.2,0-.13Z" transform="translate(-6.62 -1.5)"/><path class="cls-2" d="M52.19,21.21h3.09v-.32H52.13Zm-.4-1.66h3.49V20H51.9l-.11-.49Zm-.35-1.42h3.84v.59H51.6l-.16-.41v-.18Z" transform="translate(-6.62 -1.5)"/><path class="cls-1" d="M52.22,24.42l-.47.35h3.53v-.35ZM55.28,4.51H46.79a3.89,3.89,0,0,0-1.63-.4l-.1.4H42.74l-1.2.8h3.35l-.37.38H41.16c-.42.42-1,.93-1,.93h4.35v.25H39.94l-.64.78h4.23v.41H39l-.61.84h5v.34H38.19l-.38.83h5.1l.18.37H37.65l-.28.78h5.37v.4H37.2l-.29.81h5.24v.38h-5.3l-.18.79H41.4l-.29.39h-4.5l-.15.79H40l-.06.15H35.64V14c1.92-11.2,13-12.24,13-12.24h6.61v.3H48.51l-2.17.8h8.93v.38H45l-1.5.79H55.28v.45Z" transform="translate(-6.62 -1.5)"/><path class="cls-1" d="M52.86,5.82h2.42V5.26H48.37l.13.15a14.59,14.59,0,0,1,4.36.41Z" transform="translate(-6.62 -1.5)"/><path class="cls-2" d="M54.22,6.57,55.28,7V6.57Z" transform="translate(-6.62 -1.5)"/><path d="M40.65,28.49c-3.19,1.87-6.9,1.77-10.43.89A13.86,13.86,0,0,1,20.13,18.23h4.34c1.3,5.48,7.68,9,13,6.91.88,1.28,2.19,2.15,3.16,3.35ZM6.77,18.22H11v11.9H6.77Z" transform="translate(-6.62 -1.5)"/><path d="M75,30.35a1.83,1.83,0,0,0,1.29-.53,1.86,1.86,0,0,0,.53-1.3,1.83,1.83,0,0,0-.53-1.29h0a1.83,1.83,0,0,0-2.59,2.59h0A1.84,1.84,0,0,0,75,30.35Zm1.39-.43a2,2,0,0,1-2.79,0h0a2,2,0,0,1,2.79-2.79h0a2,2,0,0,1,0,2.79Z" transform="translate(-6.62 -1.5)"/><path d="M74.36,29.37V27.43h.86a1,1,0,0,1,.39.05.39.39,0,0,1,.22.18.61.61,0,0,1,.08.3.47.47,0,0,1-.13.34.63.63,0,0,1-.42.18l.16.1a2,2,0,0,1,.21.26l.34.53h-.32L75.49,29a2.48,2.48,0,0,0-.19-.26.4.4,0,0,0-.13-.13.22.22,0,0,0-.11-.05.38.38,0,0,0-.15,0h-.3v.86Zm.25-1.09h.56a1,1,0,0,0,.27,0,.31.31,0,0,0,.15-.12.27.27,0,0,0,.06-.17.33.33,0,0,0-.1-.23.49.49,0,0,0-.32-.09h-.62v.64ZM16.26,1.65a20.62,20.62,0,0,1,3.06.47c2,.5,3.25,2.29,4.16,4.07C28,2,35.42.07,40.85,3.62A14.57,14.57,0,0,0,37.59,6.7c-.21.28-.85-.12-1.3-.21a10,10,0,0,0-11.82,8.19H16c2.61,0,4.64-2.86,4.47-5.34a4.24,4.24,0,0,0-3.28-4H10.85v9.29H6.9v-13h9.41l0,0ZM56.64,26.11h6.23a10.85,10.85,0,0,0,2.62-.51c3.26-1.06,6.23-3.63,6.74-7.21H77A14.18,14.18,0,0,1,66.88,29.78a17.89,17.89,0,0,1-4.08.65H56.64V26.11Zm4.81-12.77c0,.07,0,1.27,0,1.34H56.68s0-1.18,0-1.2A14.17,14.17,0,0,1,66.76,2.16a18.08,18.08,0,0,1,4.08-.66h6.44V5.83h-6.5a11.33,11.33,0,0,0-2.62.5C65,7.38,62,9.87,61.45,13.34Z" transform="translate(-6.62 -1.5)"/><path class="cls-3" d="M6.62,16.6h0Zm0,.73h0Zm0-1.49h0Z" transform="translate(-6.62 -1.5)"/></svg>