<?xml version="1.0" encoding="utf-8"?>
<!-- Generator: Adobe Illustrator 22.1.0, SVG Export Plug-In . SVG Version: 6.00 Build 0)  -->
<svg version="1.1" id="Слой_1" xmlns="http://www.w3.org/2000/svg" xmlns:xlink="http://www.w3.org/1999/xlink" x="0px" y="0px"
	 viewBox="0 0 496 368" style="enable-background:new 0 0 496 368;" xml:space="preserve">
<style type="text/css">
	.st0{fill:#78B9EB;}
	.st1{fill:#3E3D42;}
	.st2{fill:#D80027;}
</style>
<g>
	<g>
		<path class="st0" d="M488,56v284c0,11-8.9,20-20,20c0,0,0,0,0,0H28c-11,0-20-8.9-20-20c0,0,0,0,0,0V56H488z"/>
		<path class="st1" d="M488,28v28H8V28C8,17,16.9,8,28,8c0,0,0,0,0,0h440C479,8,488,16.9,488,28C488,28,488,28,488,28z"/>
		<circle class="st2" cx="248" cy="144" r="56"/>
	</g>
	<g>
		<path d="M200,280h-8v-40c0-4.4-3.6-8-8-8c-2.4,0-4.6,1.1-6.1,2.9l-40,48c-2.8,3.4-2.4,8.4,1,11.3c1.4,1.2,3.3,1.9,5.1,1.9h32v24
			c0,4.4,3.6,8,8,8s8-3.6,8-8v-24h8c4.4,0,8-3.6,8-8S204.4,280,200,280z M176,280h-14.9l14.9-17.9V280z"/>
		<path d="M352,280h-8v-40c0-4.4-3.6-8-8-8c-2.4,0-4.6,1.1-6.1,2.9l-40,48c-2.8,3.4-2.4,8.4,1,11.3c1.4,1.2,3.3,1.9,5.1,1.9h32v24
			c0,4.4,3.6,8,8,8s8-3.6,8-8v-24h8c4.4,0,8-3.6,8-8S356.4,280,352,280z M328,280h-14.9l14.9-17.9V280z"/>
		<path d="M272,232h-48c-4.4,0-8,3.6-8,8v80c0,4.4,3.6,8,8,8h48c4.4,0,8-3.6,8-8v-80C280,235.6,276.4,232,272,232z M264,312h-32v-64
			h32V312z"/>
		<path d="M468,0H28C12.5,0,0,12.5,0,28v312c0,15.5,12.5,28,28,28h440c15.5,0,28-12.5,28-28V28C496,12.5,483.5,0,468,0z M480,340
			c0,6.6-5.4,12-12,12H28c-6.6,0-12-5.4-12-12V64h464V340z M480,48H16V28c0-6.6,5.4-12,12-12h440c6.6,0,12,5.4,12,12V48z"/>
		<path d="M32,40h8c4.4,0,8-3.6,8-8s-3.6-8-8-8h-8c-4.4,0-8,3.6-8,8S27.6,40,32,40z"/>
		<path d="M64,40h8c4.4,0,8-3.6,8-8s-3.6-8-8-8h-8c-4.4,0-8,3.6-8,8S59.6,40,64,40z"/>
		<path d="M96,40h8c4.4,0,8-3.6,8-8s-3.6-8-8-8h-8c-4.4,0-8,3.6-8,8S91.6,40,96,40z"/>
		<path d="M248,208c35.3,0,64-28.7,64-64s-28.7-64-64-64s-64,28.7-64,64C184,179.3,212.7,208,248,208z M248,96c26.5,0,48,21.5,48,48
			s-21.5,48-48,48s-48-21.5-48-48C200,117.5,221.5,96,248,96z"/>
		<path d="M222.3,169.7c3.1,3.1,8.2,3.1,11.3,0c0,0,0,0,0,0l14.3-14.3l14.3,14.3c3.1,3.1,8.2,3.1,11.3,0s3.1-8.2,0-11.3L259.3,144
			l14.3-14.3c3.1-3.1,3.1-8.2,0-11.3s-8.2-3.1-11.3,0L248,132.7l-14.3-14.3c-3.1-3.1-8.2-3.1-11.3,0s-3.1,8.2,0,11.3l14.3,14.3
			l-14.3,14.3C219.2,161.5,219.2,166.5,222.3,169.7C222.3,169.7,222.3,169.7,222.3,169.7L222.3,169.7z"/>
	</g>
</g>
</svg>
